<svg width="251" height="34" viewBox="0 0 251 34" fill="none" xmlns="http://www.w3.org/2000/svg">
<path d="M16.9885 17.3854C18.0281 16.3457 18.0281 14.6601 16.9885 13.6205C15.9488 12.5808 14.2632 12.5808 13.2235 13.6205C12.1839 14.6601 12.1839 16.3457 13.2235 17.3854C14.2632 18.425 15.9488 18.425 16.9885 17.3854Z" fill="#FD4A13"/>
<path d="M30.0664 13.8669C30.8794 10.316 28.2399 9.70722 28.2399 9.70722C26.3453 10.8341 24.7457 11.9497 23.392 13.0425C21.5692 9.25721 18.9297 4.80634 15.1104 0C11.291 4.80634 8.65151 9.25343 6.8288 13.0425C5.47501 11.9497 3.87542 10.8341 1.98087 9.70722C1.98087 9.70722 -0.654868 10.316 0.154382 13.8669C0.154382 13.8669 2.62373 14.472 5.41829 16.2152C3.91323 19.906 3.26281 22.6855 2.9981 24.1451C2.77121 25.1397 2.71448 26.0321 2.70314 26.4859C2.70314 26.6069 2.69558 26.7241 2.68801 26.8452C2.5481 29.133 4.3292 30.4679 5.22165 30.8271C5.49014 30.9368 5.76997 31.0162 6.05359 31.0465C11.1246 31.5796 12.6902 29.3372 13.178 27.8926C13.507 27.2271 15.8213 21.8724 9.21495 15.1829C10.4629 11.8022 12.3309 7.82779 15.1179 3.28616C17.9049 7.83157 19.773 11.806 21.0209 15.1829C14.4108 21.8762 16.7289 27.2309 17.0579 27.8926C17.5457 29.3334 19.1112 31.5759 24.1823 31.0465C24.4697 31.0162 24.7495 30.9368 25.0142 30.8271C25.9029 30.4679 27.6878 29.133 27.5479 26.8452C27.5403 26.7241 27.5327 26.6069 27.5327 26.4859C27.5214 26.0321 27.4647 25.1397 27.2378 24.1451C26.9693 22.6855 26.3226 19.906 24.8176 16.2152C27.6122 14.472 30.0815 13.8669 30.0815 13.8669H30.0664ZM11.4082 22.4208C11.654 24.9241 10.8977 26.6788 10.4024 27.367C10.2208 27.6204 9.98261 27.8246 9.71034 27.9683C8.67797 28.5053 7.72124 28.4372 6.87418 28.0515C6.85527 27.9607 6.84393 27.87 6.82502 27.7792C6.7267 26.2288 6.79099 23.0296 8.17125 18.3064C9.38134 19.4144 10.5196 20.7682 11.4082 22.4208ZM20.5066 27.9683C20.2306 27.8246 19.9961 27.6166 19.8146 27.367C19.3192 26.6788 18.5629 24.9241 18.8087 22.4208C19.7012 20.7682 20.8394 19.4144 22.0457 18.3064C23.426 23.0296 23.4903 26.2288 23.392 27.7792C23.373 27.87 23.3617 27.9607 23.3428 28.0515C22.4957 28.4372 21.539 28.509 20.5066 27.9683Z" fill="#FD4A13"/>
<path d="M56.8977 24.043H58.5578V31.1258H56.8977V24.043Z" fill="#FFFDCF"/>
<path d="M64.4531 26.626C64.8199 27.0307 65.0052 27.5903 65.0052 28.305V31.1299H63.417V28.3958C63.417 28.0706 63.3376 27.8172 63.1749 27.6357C63.0123 27.4542 62.7892 27.3634 62.5056 27.3634C62.1955 27.3634 61.9459 27.4693 61.7569 27.6773C61.5678 27.8853 61.4733 28.1613 61.4733 28.4979V31.1299H59.885V26.1307H61.2615L61.3636 26.7168C61.5602 26.4937 61.7947 26.3235 62.067 26.2025C62.3392 26.0815 62.6418 26.021 62.9745 26.021C63.5947 26.021 64.0901 26.2252 64.4569 26.6298L64.4531 26.626Z" fill="#FFFDCF"/>
<path d="M71.381 24.043V31.1258H70.0046L69.9024 30.5283C69.4789 30.9934 68.923 31.2279 68.2424 31.2279C67.7772 31.2279 67.365 31.1182 67.002 30.8989C66.6428 30.6796 66.3591 30.3733 66.1587 29.9762C65.9583 29.5791 65.8562 29.1329 65.8562 28.6262C65.8562 28.1195 65.9583 27.6695 66.1587 27.2762C66.3591 26.8829 66.6428 26.5728 67.002 26.3535C67.3613 26.1342 67.7772 26.0245 68.2424 26.0245C68.855 26.0245 69.373 26.2174 69.789 26.6031V24.043H71.3773H71.381ZM69.4789 29.5451C69.702 29.3107 69.8117 29.0081 69.8117 28.63C69.8117 28.2518 69.702 27.9455 69.4789 27.7148C69.2558 27.4804 68.9684 27.3669 68.6205 27.3669C68.2726 27.3669 67.9852 27.4842 67.7659 27.7224C67.5466 27.9569 67.4369 28.2632 67.4369 28.6338C67.4369 29.0043 67.5466 29.3069 67.7659 29.5451C67.9852 29.7796 68.2688 29.9006 68.6205 29.9006C68.9722 29.9006 69.2596 29.7833 69.4789 29.5527V29.5451Z" fill="#FFFDCF"/>
<path d="M72.712 25.3895C72.538 25.2269 72.4548 25.0227 72.4548 24.7731C72.4548 24.5235 72.5418 24.3079 72.7195 24.1453C72.8935 23.9827 73.1166 23.9033 73.3889 23.9033C73.6611 23.9033 73.8805 23.9827 74.0582 24.1453C74.2322 24.3079 74.3229 24.5159 74.3229 24.7731C74.3229 25.0302 74.2359 25.2269 74.0658 25.3895C73.8918 25.5521 73.6687 25.6315 73.3927 25.6315C73.1166 25.6315 72.8935 25.5521 72.7195 25.3895H72.712ZM72.5834 26.1269H74.1717V31.1261H72.5834V26.1269Z" fill="#FFFDCF"/>
<path d="M80.6081 26.1265V31.1257H79.2316L79.1295 30.5282C78.706 30.9934 78.1501 31.2278 77.4694 31.2278C77.0043 31.2278 76.5921 31.1181 76.2291 30.8988C75.8698 30.6795 75.5862 30.3732 75.3858 29.9761C75.1853 29.5791 75.0833 29.1328 75.0833 28.6261C75.0833 28.1194 75.1853 27.6694 75.3858 27.2761C75.5862 26.8828 75.8698 26.5727 76.2291 26.3534C76.5883 26.1341 77.0043 26.0244 77.4694 26.0244C77.806 26.0244 78.116 26.0849 78.3997 26.2021C78.6833 26.3194 78.9253 26.4895 79.1295 26.7127L79.2316 26.1265H80.6081ZM78.706 29.545C78.9291 29.3106 79.0387 29.008 79.0387 28.6299C79.0387 28.2517 78.9291 27.9454 78.706 27.7148C78.4829 27.4803 78.1955 27.3669 77.8476 27.3669C77.4997 27.3669 77.2123 27.4841 76.9929 27.7223C76.7736 27.9568 76.6639 28.2631 76.6639 28.6337C76.6639 29.0043 76.7736 29.3068 76.9929 29.545C77.2123 29.7795 77.4959 29.9005 77.8476 29.9005C78.1992 29.9005 78.4866 29.7833 78.706 29.5526V29.545Z" fill="#FFFDCF"/>
<path d="M86.375 26.626C86.7418 27.0307 86.9271 27.5903 86.9271 28.305V31.1299H85.3388V28.3958C85.3388 28.0706 85.2594 27.8172 85.0968 27.6357C84.9342 27.4542 84.7111 27.3634 84.4275 27.3634C84.1174 27.3634 83.8678 27.4693 83.6788 27.6773C83.4897 27.8853 83.3951 28.1613 83.3951 28.4979V31.1299H81.8069V26.1307H83.1834L83.2855 26.7168C83.4821 26.4937 83.7166 26.3235 83.9888 26.2025C84.2611 26.0815 84.5636 26.021 84.8964 26.021C85.5166 26.021 86.012 26.2252 86.3788 26.6298L86.375 26.626Z" fill="#FFFDCF"/>
<path d="M95.2236 24.043H97.0539L94.1383 31.1258H92.3875L89.4719 24.043H91.3022L92.2551 26.4518L93.2572 29.2048L94.2783 26.4518L95.2199 24.043H95.2236Z" fill="#FFFDCF"/>
<path d="M100.881 26.3273C101.278 26.5315 101.584 26.8227 101.796 27.1971C102.008 27.5714 102.113 28.0101 102.113 28.5093C102.113 28.6719 102.098 28.8685 102.064 29.1067H98.3924C98.4378 29.3639 98.5777 29.5719 98.8084 29.7307C99.0391 29.8895 99.3302 29.9689 99.6895 29.9689C99.9391 29.9689 100.181 29.9311 100.419 29.8593C100.654 29.7836 100.858 29.6815 101.028 29.5454L101.856 30.4341C101.573 30.6988 101.236 30.8992 100.85 31.0429C100.461 31.1828 100.049 31.2547 99.6101 31.2547C99.0315 31.2547 98.5286 31.1488 98.1012 30.937C97.6777 30.7252 97.3487 30.4227 97.118 30.0294C96.8874 29.6399 96.7739 29.1748 96.7739 28.6416C96.7739 28.1084 96.8874 27.6735 97.1143 27.2765C97.3412 26.8794 97.655 26.5693 98.0596 26.35C98.4643 26.1307 98.9332 26.021 99.4664 26.021C99.9996 26.021 100.484 26.1231 100.884 26.3311L100.881 26.3273ZM98.7403 27.5147C98.5399 27.6773 98.4265 27.9042 98.4 28.1916H100.605C100.586 27.9004 100.48 27.6773 100.287 27.5147C100.094 27.3521 99.837 27.2727 99.5118 27.2727C99.1865 27.2727 98.937 27.3521 98.7365 27.5147H98.7403Z" fill="#FFFDCF"/>
<path d="M107.941 30.9523C108.126 31.2245 108.217 31.5422 108.217 31.8976C108.217 32.3174 108.104 32.6842 107.873 33.0056C107.642 33.3271 107.321 33.5729 106.901 33.743C106.481 33.9132 105.997 34.0002 105.445 34.0002C104.893 34.0002 104.432 33.9132 104.027 33.7355C103.622 33.5577 103.309 33.3119 103.089 32.9867C102.87 32.6615 102.76 32.2871 102.76 31.8636C102.76 31.7539 102.76 31.6745 102.772 31.6216H104.299C104.284 31.9506 104.379 32.2077 104.579 32.3892C104.78 32.5708 105.067 32.6615 105.445 32.6615C105.782 32.6615 106.058 32.5859 106.266 32.4346C106.474 32.2834 106.58 32.0829 106.58 31.8334C106.58 31.5838 106.481 31.3796 106.292 31.2397C106.099 31.0997 105.823 31.0317 105.468 31.0317C104.916 31.0317 104.432 30.9258 104.016 30.7178C103.6 30.5098 103.282 30.2149 103.055 29.8329C102.828 29.451 102.715 29.0085 102.715 28.5018C102.715 27.9951 102.832 27.5829 103.063 27.201C103.297 26.819 103.619 26.5241 104.035 26.3123C104.451 26.1005 104.923 25.9947 105.456 25.9947C105.869 25.9947 106.247 26.0741 106.591 26.2367L107.177 25.5068L108.342 26.3463L107.672 27.1253C108.009 27.5111 108.179 27.9686 108.179 28.5018C108.179 28.8724 108.088 29.2165 107.911 29.5304C107.733 29.8443 107.48 30.1014 107.158 30.3056C107.495 30.4607 107.756 30.6762 107.941 30.9485V30.9523ZM106.304 29.3678C106.519 29.1522 106.629 28.8648 106.629 28.5094C106.629 28.1539 106.523 27.8665 106.311 27.6548C106.099 27.443 105.812 27.3371 105.456 27.3371C105.101 27.3371 104.821 27.443 104.606 27.6548C104.39 27.8665 104.28 28.1539 104.28 28.5094C104.28 28.8648 104.39 29.1447 104.606 29.364C104.821 29.5833 105.105 29.693 105.456 29.693C105.808 29.693 106.092 29.5833 106.307 29.3678H106.304Z" fill="#FFFDCF"/>
<path d="M113.035 26.3273C113.432 26.5315 113.738 26.8227 113.95 27.1971C114.162 27.5714 114.268 28.0101 114.268 28.5093C114.268 28.6719 114.252 28.8685 114.218 29.1067H110.546C110.592 29.3639 110.732 29.5719 110.962 29.7307C111.193 29.8895 111.484 29.9689 111.844 29.9689C112.093 29.9689 112.335 29.9311 112.573 29.8593C112.808 29.7836 113.012 29.6815 113.182 29.5454L114.01 30.4341C113.727 30.6988 113.39 30.8992 113.004 31.0429C112.615 31.1828 112.203 31.2547 111.764 31.2547C111.182 31.2547 110.683 31.1488 110.255 30.937C109.832 30.7252 109.503 30.4227 109.272 30.0294C109.041 29.6399 108.928 29.1748 108.928 28.6416C108.928 28.1084 109.041 27.6735 109.268 27.2765C109.495 26.8794 109.809 26.5693 110.214 26.35C110.618 26.1307 111.087 26.021 111.62 26.021C112.154 26.021 112.638 26.1231 113.039 26.3311L113.035 26.3273ZM110.894 27.5147C110.694 27.6773 110.581 27.9042 110.554 28.1916H112.759C112.74 27.9004 112.634 27.6773 112.441 27.5147C112.248 27.3521 111.991 27.2727 111.666 27.2727C111.341 27.2727 111.091 27.3521 110.891 27.5147H110.894Z" fill="#FFFDCF"/>
<path d="M118.734 30.9365C118.34 31.1331 117.902 31.2314 117.406 31.2314C116.858 31.2314 116.427 31.0764 116.109 30.7701C115.792 30.4638 115.633 29.9684 115.633 29.2877V27.3969H114.782V26.1339H115.633V24.8898L117.21 24.7158V26.1339H118.454V27.3969H117.21V29.2877C117.21 29.4919 117.259 29.6394 117.361 29.7377C117.463 29.836 117.599 29.8852 117.777 29.8852C117.974 29.8852 118.166 29.8398 118.356 29.7415L118.73 30.9365H118.734Z" fill="#FFFDCF"/>
<path d="M124.652 26.1265V31.1257H123.275L123.173 30.5282C122.75 30.9934 122.194 31.2278 121.513 31.2278C121.048 31.2278 120.636 31.1181 120.273 30.8988C119.91 30.6795 119.63 30.3732 119.429 29.9761C119.229 29.5791 119.127 29.1328 119.127 28.6261C119.127 28.1194 119.229 27.6694 119.429 27.2761C119.63 26.8828 119.914 26.5727 120.273 26.3534C120.632 26.1341 121.048 26.0244 121.513 26.0244C121.85 26.0244 122.16 26.0849 122.443 26.2021C122.727 26.3194 122.969 26.4895 123.173 26.7127L123.275 26.1265H124.652ZM122.75 29.545C122.973 29.3106 123.082 29.008 123.082 28.6299C123.082 28.2517 122.973 27.9454 122.75 27.7148C122.527 27.4803 122.239 27.3669 121.891 27.3669C121.543 27.3669 121.256 27.4841 121.037 27.7223C120.817 27.9568 120.708 28.2631 120.708 28.6337C120.708 29.0043 120.817 29.3068 121.037 29.545C121.256 29.7795 121.54 29.9005 121.891 29.9005C122.243 29.9005 122.53 29.7833 122.75 29.5526V29.545Z" fill="#FFFDCF"/>
<path d="M129.378 26.142C129.609 26.2252 129.806 26.35 129.976 26.5126L129.307 27.6773C129.163 27.5903 129.034 27.5261 128.913 27.4845C128.792 27.4429 128.664 27.4239 128.528 27.4239C128.191 27.4239 127.922 27.5336 127.73 27.7492C127.533 27.9647 127.435 28.2824 127.435 28.7021V31.1299H125.846V26.1307H127.234L127.355 26.7584C127.68 26.2668 128.123 26.021 128.69 26.021C128.921 26.021 129.148 26.0626 129.378 26.1458V26.142Z" fill="#FFFDCF"/>
<path d="M130.638 25.3895C130.468 25.2269 130.381 25.0227 130.381 24.7731C130.381 24.5235 130.468 24.3079 130.645 24.1453C130.819 23.9827 131.042 23.9033 131.315 23.9033C131.587 23.9033 131.806 23.9827 131.984 24.1453C132.158 24.3079 132.249 24.5159 132.249 24.7731C132.249 25.0302 132.162 25.2269 131.992 25.3895C131.818 25.5521 131.594 25.6315 131.318 25.6315C131.042 25.6315 130.815 25.5521 130.645 25.3895H130.638ZM130.513 26.1269H132.101V31.1261H130.513V26.1269Z" fill="#FFFDCF"/>
<path d="M138.538 26.1265V31.1257H137.161L137.059 30.5282C136.635 30.9934 136.08 31.2278 135.399 31.2278C134.934 31.2278 134.522 31.1181 134.159 30.8988C133.795 30.6795 133.516 30.3732 133.315 29.9761C133.115 29.5791 133.013 29.1328 133.013 28.6261C133.013 28.1194 133.115 27.6694 133.315 27.2761C133.516 26.8828 133.799 26.5727 134.159 26.3534C134.518 26.1341 134.934 26.0244 135.399 26.0244C135.735 26.0244 136.045 26.0849 136.329 26.2021C136.613 26.3194 136.855 26.4895 137.059 26.7127L137.161 26.1265H138.538ZM136.635 29.545C136.859 29.3106 136.968 29.008 136.968 28.6299C136.968 28.2517 136.859 27.9454 136.635 27.7148C136.412 27.4803 136.125 27.3669 135.777 27.3669C135.429 27.3669 135.142 27.4841 134.922 27.7223C134.703 27.9568 134.593 28.2631 134.593 28.6337C134.593 29.0043 134.703 29.3068 134.922 29.545C135.142 29.7795 135.425 29.9005 135.777 29.9005C136.129 29.9005 136.416 29.7833 136.635 29.5526V29.545Z" fill="#FFFDCF"/>
<path d="M144.301 26.626C144.667 27.0307 144.853 27.5903 144.853 28.305V31.1299H143.264V28.3958C143.264 28.0706 143.185 27.8172 143.022 27.6357C142.86 27.4542 142.637 27.3634 142.353 27.3634C142.043 27.3634 141.793 27.4693 141.604 27.6773C141.415 27.8853 141.321 28.1613 141.321 28.4979V31.1299H139.732V26.1307H141.109L141.211 26.7168C141.408 26.4937 141.642 26.3235 141.914 26.2025C142.187 26.0815 142.489 26.021 142.822 26.021C143.442 26.021 143.937 26.2252 144.304 26.6298L144.301 26.626Z" fill="#FFFDCF"/>
<path d="M151.145 28.7888H150.185V31.1258H148.524V24.043H151.973C152.487 24.043 152.934 24.1413 153.319 24.3417C153.705 24.5421 154 24.822 154.212 25.185C154.42 25.548 154.526 25.9678 154.526 26.4405C154.526 26.9812 154.386 27.4426 154.106 27.8283C153.826 28.214 153.429 28.4863 152.919 28.6489L154.923 31.1296H152.949L151.149 28.7926L151.145 28.7888ZM152.597 25.722C152.404 25.548 152.132 25.4573 151.784 25.4573H150.177V27.4501H151.784C152.143 27.4501 152.416 27.3632 152.605 27.193C152.794 27.019 152.888 26.777 152.888 26.4594C152.888 26.1417 152.794 25.8959 152.601 25.722H152.597Z" fill="#FFFDCF"/>
<path d="M159.272 26.3273C159.669 26.5315 159.975 26.8227 160.187 27.1971C160.398 27.5714 160.504 28.0101 160.504 28.5093C160.504 28.6719 160.489 28.8685 160.455 29.1067H156.783C156.829 29.3639 156.969 29.5719 157.199 29.7307C157.43 29.8895 157.721 29.9689 158.08 29.9689C158.33 29.9689 158.572 29.9311 158.81 29.8593C159.045 29.7836 159.249 29.6815 159.419 29.5454L160.247 30.4341C159.964 30.6988 159.627 30.8992 159.241 31.0429C158.852 31.1828 158.44 31.2547 158.001 31.2547C157.419 31.2547 156.919 31.1488 156.492 30.937C156.069 30.7252 155.74 30.4227 155.509 30.0294C155.278 29.6399 155.165 29.1748 155.165 28.6416C155.165 28.1084 155.278 27.6735 155.505 27.2765C155.732 26.8794 156.046 26.5693 156.451 26.35C156.855 26.1307 157.324 26.021 157.857 26.021C158.39 26.021 158.874 26.1231 159.275 26.3311L159.272 26.3273ZM157.131 27.5147C156.931 27.6773 156.817 27.9042 156.791 28.1916H158.995C158.977 27.9004 158.871 27.6773 158.678 27.5147C158.485 27.3521 158.228 27.2727 157.903 27.2727C157.577 27.2727 157.328 27.3521 157.127 27.5147H157.131Z" fill="#FFFDCF"/>
<path d="M161.022 30.5927L161.631 29.4999C161.873 29.6474 162.157 29.7646 162.475 29.844C162.796 29.9234 163.114 29.965 163.431 29.965C163.87 29.965 164.089 29.8478 164.089 29.6095C164.089 29.4885 164.029 29.3978 163.908 29.3373C163.787 29.2768 163.583 29.2352 163.299 29.2163C162.664 29.1822 162.161 29.0234 161.786 28.7398C161.412 28.4562 161.223 28.0856 161.223 27.628C161.223 27.1289 161.427 26.7318 161.832 26.4406C162.236 26.1457 162.785 26.002 163.469 26.002C163.859 26.002 164.233 26.0473 164.588 26.1419C164.944 26.2364 165.246 26.3688 165.504 26.5351L164.887 27.5978C164.509 27.3822 164.059 27.2725 163.541 27.2725C163.023 27.2725 162.773 27.3936 162.773 27.6356C162.773 27.7377 162.826 27.8133 162.932 27.87C163.038 27.923 163.216 27.9646 163.465 27.991C164.18 28.044 164.725 28.2066 165.099 28.4751C165.473 28.7436 165.662 29.1217 165.662 29.6095C165.662 30.1238 165.458 30.5247 165.046 30.8196C164.634 31.1146 164.063 31.2583 163.337 31.2583C162.452 31.2583 161.684 31.0352 161.03 30.589L161.022 30.5927Z" fill="#FFFDCF"/>
<path d="M170.091 30.9365C169.697 31.1331 169.259 31.2314 168.763 31.2314C168.215 31.2314 167.784 31.0764 167.466 30.7701C167.149 30.4638 166.99 29.9684 166.99 29.2877V27.3969H166.139V26.1339H166.99V24.8898L168.567 24.7158V26.1339H169.811V27.3969H168.567V29.2877C168.567 29.4919 168.616 29.6394 168.718 29.7377C168.82 29.836 168.956 29.8852 169.134 29.8852C169.331 29.8852 169.523 29.8398 169.712 29.7415L170.087 30.9365H170.091Z" fill="#FFFDCF"/>
<path d="M176.012 26.1265V31.1257H174.636L174.534 30.5282C174.11 30.9934 173.554 31.2278 172.874 31.2278C172.409 31.2278 171.996 31.1181 171.633 30.8988C171.27 30.6795 170.99 30.3732 170.79 29.9761C170.59 29.5791 170.488 29.1328 170.488 28.6261C170.488 28.1194 170.59 27.6694 170.79 27.2761C170.99 26.8828 171.274 26.5727 171.633 26.3534C171.993 26.1341 172.409 26.0244 172.874 26.0244C173.21 26.0244 173.52 26.0849 173.804 26.2021C174.088 26.3194 174.33 26.4895 174.534 26.7127L174.636 26.1265H176.012ZM174.106 29.545C174.33 29.3106 174.439 29.008 174.439 28.6299C174.439 28.2517 174.33 27.9454 174.106 27.7148C173.883 27.4803 173.596 27.3669 173.248 27.3669C172.9 27.3669 172.613 27.4841 172.393 27.7223C172.174 27.9568 172.064 28.2631 172.064 28.6337C172.064 29.0043 172.174 29.3068 172.393 29.545C172.613 29.7795 172.896 29.9005 173.248 29.9005C173.6 29.9005 173.887 29.7833 174.106 29.5526V29.545Z" fill="#FFFDCF"/>
<path d="M182.226 26.1268V31.126H180.849L180.747 30.5474C180.558 30.7706 180.327 30.9407 180.055 31.058C179.783 31.1752 179.484 31.2357 179.159 31.2357C178.546 31.2357 178.055 31.0315 177.692 30.6269C177.329 30.2222 177.143 29.6626 177.143 28.9479V26.123H178.732V28.8571C178.732 29.1823 178.811 29.4357 178.97 29.6172C179.129 29.7987 179.344 29.8895 179.624 29.8895C179.927 29.8895 180.172 29.7836 180.358 29.5718C180.543 29.36 180.637 29.084 180.637 28.7474V26.1268H182.226Z" fill="#FFFDCF"/>
<path d="M186.952 26.142C187.183 26.2252 187.38 26.35 187.55 26.5126L186.881 27.6773C186.737 27.5903 186.608 27.5261 186.487 27.4845C186.366 27.4429 186.238 27.4239 186.102 27.4239C185.765 27.4239 185.496 27.5336 185.304 27.7492C185.107 27.9647 185.009 28.2824 185.009 28.7021V31.1299H183.42V26.1307H184.808L184.929 26.7584C185.254 26.2668 185.697 26.021 186.264 26.021C186.495 26.021 186.722 26.0626 186.952 26.1458V26.142Z" fill="#FFFDCF"/>
<path d="M193.196 26.1265V31.1257H191.819L191.717 30.5282C191.294 30.9934 190.738 31.2278 190.057 31.2278C189.592 31.2278 189.18 31.1181 188.817 30.8988C188.454 30.6795 188.174 30.3732 187.973 29.9761C187.773 29.5791 187.671 29.1328 187.671 28.6261C187.671 28.1194 187.773 27.6694 187.973 27.2761C188.174 26.8828 188.457 26.5727 188.817 26.3534C189.176 26.1341 189.592 26.0244 190.057 26.0244C190.394 26.0244 190.704 26.0849 190.987 26.2021C191.271 26.3194 191.513 26.4895 191.717 26.7127L191.819 26.1265H193.196ZM191.294 29.545C191.517 29.3106 191.626 29.008 191.626 28.6299C191.626 28.2517 191.517 27.9454 191.294 27.7148C191.071 27.4803 190.783 27.3669 190.435 27.3669C190.087 27.3669 189.8 27.4841 189.581 27.7223C189.361 27.9568 189.252 28.2631 189.252 28.6337C189.252 29.0043 189.361 29.3068 189.581 29.545C189.8 29.7795 190.084 29.9005 190.435 29.9005C190.787 29.9005 191.074 29.7833 191.294 29.5526V29.545Z" fill="#FFFDCF"/>
<path d="M198.959 26.626C199.326 27.0307 199.511 27.5903 199.511 28.305V31.1299H197.923V28.3958C197.923 28.0706 197.843 27.8172 197.681 27.6357C197.518 27.4542 197.295 27.3634 197.011 27.3634C196.701 27.3634 196.452 27.4693 196.262 27.6773C196.073 27.8853 195.979 28.1613 195.979 28.4979V31.1299H194.391V26.1307H195.767L195.869 26.7168C196.066 26.4937 196.3 26.3235 196.573 26.2025C196.845 26.0815 197.147 26.021 197.48 26.021C198.1 26.021 198.596 26.2252 198.962 26.6298L198.959 26.626Z" fill="#FFFDCF"/>
<path d="M204.196 30.9365C203.803 31.1331 203.364 31.2314 202.869 31.2314C202.321 31.2314 201.89 31.0764 201.572 30.7701C201.254 30.4638 201.095 29.9684 201.095 29.2877V27.3969H200.245V26.1339H201.095V24.8898L202.672 24.7158V26.1339H203.917V27.3969H202.672V29.2877C202.672 29.4919 202.722 29.6394 202.824 29.7377C202.926 29.836 203.062 29.8852 203.24 29.8852C203.436 29.8852 203.629 29.8398 203.818 29.7415L204.193 30.9365H204.196Z" fill="#FFFDCF"/>
<path d="M212.826 31.2395L211.926 30.4189C211.306 30.9786 210.534 31.2584 209.608 31.2584C209.101 31.2584 208.666 31.179 208.295 31.0202C207.929 30.8614 207.645 30.642 207.452 30.3584C207.256 30.0748 207.157 29.7534 207.157 29.3979C207.157 28.6076 207.641 27.9382 208.606 27.3823C208.314 27.0912 208.11 26.8265 207.989 26.5844C207.868 26.3424 207.808 26.0739 207.808 25.7865C207.808 25.4348 207.902 25.1172 208.087 24.8298C208.273 24.5424 208.534 24.3155 208.87 24.1529C209.207 23.9865 209.596 23.9033 210.035 23.9033C210.421 23.9033 210.761 23.979 211.064 24.1302C211.362 24.2815 211.597 24.4932 211.767 24.7617C211.937 25.0302 212.02 25.3327 212.02 25.6617C212.02 26.021 211.907 26.3651 211.676 26.6941C211.445 27.0269 211.109 27.3294 210.663 27.6054L211.737 28.5773C211.884 28.2861 212.001 27.9269 212.092 27.4958L213.336 27.8399C213.227 28.4828 213.038 29.0311 212.758 29.4887L213.627 30.279L212.83 31.2395H212.826ZM210.977 29.5605L209.49 28.2029C208.965 28.4714 208.7 28.8118 208.7 29.2239C208.7 29.4471 208.791 29.6324 208.969 29.7761C209.146 29.9198 209.388 29.9954 209.691 29.9954C210.198 29.9954 210.625 29.8517 210.977 29.5605ZM209.4 25.2949C209.267 25.4197 209.203 25.5748 209.203 25.7563C209.203 25.9264 209.245 26.0853 209.324 26.2403C209.403 26.3954 209.559 26.5882 209.789 26.8189C210.092 26.6147 210.307 26.4294 210.436 26.263C210.564 26.0928 210.629 25.9189 210.629 25.7374C210.629 25.5559 210.568 25.4046 210.447 25.2874C210.326 25.1701 210.16 25.1096 209.952 25.1096C209.717 25.1096 209.532 25.1739 209.4 25.2987V25.2949Z" fill="#FFFDCF"/>
<path d="M222.733 28.1081C222.938 28.4144 223.036 28.7623 223.036 29.1443C223.036 29.7644 222.798 30.2523 222.321 30.6002C221.845 30.9518 221.191 31.1258 220.351 31.1258H216.849V24.043H220.351C221.115 24.043 221.712 24.2131 222.151 24.5497C222.59 24.8863 222.809 25.3476 222.809 25.9262C222.809 26.2703 222.73 26.5728 222.571 26.83C222.412 27.0909 222.193 27.2875 221.909 27.4237C222.253 27.5711 222.525 27.8018 222.73 28.1081H222.733ZM218.483 25.4081V26.8148H220.385C220.65 26.8148 220.85 26.7543 220.994 26.6333C221.138 26.5123 221.206 26.3384 221.206 26.1153C221.206 25.8921 221.134 25.7182 220.986 25.5934C220.839 25.4686 220.642 25.4043 220.385 25.4043H218.483V25.4081ZM221.16 29.5186C221.327 29.3749 221.41 29.1821 221.41 28.9325C221.41 28.6829 221.327 28.4787 221.16 28.3388C220.994 28.1989 220.763 28.1308 220.468 28.1308H218.483V29.7304H220.468C220.767 29.7304 220.998 29.6586 221.16 29.5186Z" fill="#FFFDCF"/>
<path d="M229.253 26.1265V31.1257H227.876L227.774 30.5282C227.351 30.9934 226.795 31.2278 226.114 31.2278C225.649 31.2278 225.237 31.1181 224.874 30.8988C224.511 30.6795 224.231 30.3732 224.031 29.9761C223.83 29.5791 223.728 29.1328 223.728 28.6261C223.728 28.1194 223.83 27.6694 224.031 27.2761C224.231 26.8828 224.515 26.5727 224.874 26.3534C225.233 26.1341 225.649 26.0244 226.114 26.0244C226.451 26.0244 226.761 26.0849 227.044 26.2021C227.328 26.3194 227.57 26.4895 227.774 26.7127L227.876 26.1265H229.253ZM227.351 29.545C227.574 29.3106 227.684 29.008 227.684 28.6299C227.684 28.2517 227.574 27.9454 227.351 27.7148C227.128 27.4803 226.84 27.3669 226.492 27.3669C226.144 27.3669 225.857 27.4841 225.638 27.7223C225.418 27.9568 225.309 28.2631 225.309 28.6337C225.309 29.0043 225.418 29.3068 225.638 29.545C225.857 29.7795 226.141 29.9005 226.492 29.9005C226.844 29.9005 227.131 29.7833 227.351 29.5526V29.545Z" fill="#FFFDCF"/>
<path d="M233.98 26.142C234.21 26.2252 234.407 26.35 234.577 26.5126L233.908 27.6773C233.764 27.5903 233.636 27.5261 233.515 27.4845C233.394 27.4429 233.265 27.4239 233.129 27.4239C232.792 27.4239 232.524 27.5336 232.331 27.7492C232.134 27.9647 232.036 28.2824 232.036 28.7021V31.1299H230.448V26.1307H231.836L231.957 26.7584C232.282 26.2668 232.724 26.021 233.291 26.021C233.522 26.021 233.749 26.0626 233.98 26.1458V26.142Z" fill="#FFFDCF"/>
<path d="M44.7213 3.59635H43.4091L44.2524 0.506836H49.3764L55.1319 16.8885H51.6907L50.6621 13.799H44.4604L43.4318 16.8885H40.0171L44.7213 3.59635ZM49.8907 11.133L47.5726 4.08795L45.2318 11.133H49.8869H49.8907Z" fill="#FFFDCF"/>
<path d="M55.5062 8.11553L56.3003 5.1924H59.5298V8.89075L60.4903 5.63862C61.1748 5.12433 62.0256 4.86719 63.0391 4.86719C64.3966 4.86719 65.4744 5.31341 66.2685 6.20207C67.0626 7.09073 67.4635 8.33108 67.4635 9.92311V13.9731H68.492L67.7206 16.8963H64.4912V10.1576C64.4912 9.37857 64.2907 8.78108 63.8937 8.36889C63.4966 7.95671 62.9294 7.74872 62.1958 7.74872C61.3525 7.74872 60.6983 8.00965 60.2294 8.5315C59.7605 9.05335 59.526 9.82101 59.526 10.8382V16.9H56.5537V8.12309H55.5024L55.5062 8.11553Z" fill="#FFFDCF"/>
<path d="M69.2445 8.11553L70.0386 5.1924H73.2681V8.89075L74.2286 5.63862C74.913 5.12433 75.7639 4.86719 76.7773 4.86719C78.1349 4.86719 79.2126 5.31341 80.0068 6.20207C80.8009 7.09073 81.2017 8.33108 81.2017 9.92311V13.9731H82.2303L81.4589 16.8963H78.2294V10.1576C78.2294 9.37857 78.029 8.78108 77.632 8.36889C77.2349 7.95671 76.6677 7.74872 75.9341 7.74872C75.0908 7.74872 74.4366 8.00965 73.9676 8.5315C73.4987 9.05335 73.2643 9.82101 73.2643 10.8382V16.9H70.292V8.12309H69.2407L69.2445 8.11553Z" fill="#FFFDCF"/>
<path d="M86.0348 16.4083C85.1688 15.8713 84.4919 15.1339 84.0003 14.1961C83.5087 13.2583 83.2629 12.207 83.2629 11.0385C83.2629 9.87004 83.5087 8.8339 84.0003 7.8923C84.4919 6.94691 85.1688 6.20573 86.0348 5.66875C86.9008 5.13177 87.8726 4.86328 88.9466 4.86328C90.6332 4.86328 91.934 5.52505 92.8529 6.85237V5.19228H95.8252V13.9692H96.8765L96.0824 16.8924H92.8529V12.9142L91.847 16.2835C91.0189 16.9075 90.0546 17.2214 88.9466 17.2214C87.8386 17.2214 86.9008 16.9529 86.0348 16.4159V16.4083ZM91.9189 13.4625C92.5428 12.8159 92.8567 12.0066 92.8567 11.0423C92.8567 10.078 92.5428 9.26878 91.9075 8.62213C91.276 7.97549 90.4819 7.65028 89.5327 7.65028C88.5836 7.65028 87.7932 7.97549 87.1693 8.62213C86.5453 9.26878 86.2315 10.078 86.2315 11.0423C86.2315 12.0066 86.5415 12.8159 87.1693 13.4625C87.7932 14.1091 88.5798 14.4344 89.5327 14.4344C90.4857 14.4344 91.2949 14.1091 91.9189 13.4625Z" fill="#FFFDCF"/>
<path d="M97.6062 8.11541L98.4003 5.19228H101.63V9.17046L102.636 5.8011C103.464 5.17715 104.428 4.86328 105.536 4.86328C106.644 4.86328 107.582 5.13177 108.448 5.66875C109.314 6.20573 109.991 6.94313 110.482 7.88095C110.974 8.81877 111.22 9.87004 111.22 11.0385C111.22 12.207 110.974 13.2432 110.482 14.1848C109.991 15.1302 109.314 15.8713 108.448 16.4083C107.582 16.9453 106.61 17.2138 105.536 17.2138C103.85 17.2138 102.549 16.552 101.63 15.2247V21.5663H98.6575V8.11163H97.6062V8.11541ZM107.306 13.4625C107.937 12.8159 108.255 12.0066 108.255 11.0423C108.255 10.078 107.941 9.26878 107.306 8.62213C106.674 7.97549 105.88 7.65028 104.931 7.65028C103.982 7.65028 103.173 7.97549 102.556 8.62213C101.94 9.26878 101.634 10.078 101.634 11.0423C101.634 12.0066 101.944 12.8159 102.571 13.4625C103.195 14.1091 103.982 14.4344 104.935 14.4344C105.888 14.4344 106.678 14.1091 107.31 13.4625H107.306Z" fill="#FFFDCF"/>
<path d="M114.536 15.8825C113.749 14.9939 113.356 13.7535 113.356 12.1615V8.11148H112.305L113.099 5.18835H116.328V11.9271C116.328 12.7061 116.525 13.3035 116.915 13.7157C117.304 14.1279 117.875 14.3359 118.624 14.3359C119.452 14.3359 120.102 14.075 120.579 13.5531C121.055 13.0313 121.294 12.2636 121.294 11.2464V5.18457H124.266V13.9615H125.295L124.523 16.8847H121.294V13.1863L120.333 16.4384C119.63 16.9527 118.771 17.2099 117.758 17.2099C116.4 17.2099 115.326 16.7636 114.54 15.875L114.536 15.8825Z" fill="#FFFDCF"/>
<path d="M134.109 5.07097L133.198 8.20586C132.979 8.17561 132.824 8.16049 132.729 8.16049C131.901 8.16049 131.247 8.48948 130.763 9.14369C130.279 9.79789 130.037 10.6487 130.037 11.6962V16.8921H127.064V8.11511H126.009L126.803 5.19198H130.033V7.10922C130.766 5.67601 131.844 4.95752 133.262 4.95752C133.542 4.95752 133.826 4.99534 134.106 5.07475L134.109 5.07097Z" fill="#FFFDCF"/>
<path d="M134.552 8.11553L135.346 5.1924H138.575V8.89075L139.536 5.63862C140.22 5.12433 141.071 4.86719 142.088 4.86719C143.446 4.86719 144.524 5.31341 145.318 6.20207C146.112 7.09073 146.513 8.33108 146.513 9.92311V13.9731H147.541L146.77 16.8963H143.541V10.1576C143.541 9.37857 143.34 8.78108 142.943 8.36889C142.546 7.95671 141.979 7.74872 141.245 7.74872C140.402 7.74872 139.748 8.00965 139.279 8.5315C138.81 9.05335 138.575 9.82101 138.575 10.8382V16.9H135.603V8.12309H134.548L134.552 8.11553Z" fill="#FFFDCF"/>
<path d="M151.342 16.4083C150.476 15.8713 149.799 15.1339 149.307 14.1961C148.816 13.2583 148.57 12.207 148.57 11.0385C148.57 9.87004 148.816 8.8339 149.307 7.8923C149.799 6.94691 150.476 6.20573 151.342 5.66875C152.208 5.13177 153.18 4.86328 154.254 4.86328C155.94 4.86328 157.241 5.52505 158.16 6.85237V5.19228H161.132V13.9692H162.184L161.389 16.8924H158.16V12.9142L157.154 16.2835C156.326 16.9075 155.358 17.2214 154.254 17.2214C153.15 17.2214 152.208 16.9529 151.342 16.4159V16.4083ZM157.23 13.4625C157.854 12.8159 158.164 12.0066 158.164 11.0423C158.164 10.078 157.85 9.26878 157.215 8.62213C156.583 7.97549 155.793 7.65028 154.84 7.65028C153.887 7.65028 153.1 7.97549 152.476 8.62213C151.852 9.26878 151.539 10.078 151.539 11.0423C151.539 12.0066 151.849 12.8159 152.476 13.4625C153.1 14.1091 153.887 14.4344 154.84 14.4344C155.793 14.4344 156.602 14.1091 157.226 13.4625H157.23Z" fill="#FFFDCF"/>
<path d="M168.226 3.59635L169.07 0.506836H176.205C177.718 0.506836 178.936 0.915242 179.855 1.73584C180.773 2.55643 181.235 3.6493 181.235 5.022C181.235 6.53461 180.509 7.66529 179.06 8.41404C179.979 8.78841 180.671 9.29514 181.133 9.93422C181.594 10.5733 181.825 11.322 181.825 12.1805C181.825 13.0994 181.613 13.9162 181.193 14.6271C180.773 15.338 180.176 15.8901 179.405 16.2872C178.633 16.6843 177.722 16.8847 176.678 16.8847H169.66V3.59257H168.234L168.226 3.59635ZM177.514 6.67453C177.873 6.30772 178.051 5.84259 178.051 5.28292C178.051 4.72325 177.862 4.25434 177.476 3.87997C177.094 3.5056 176.621 3.3203 176.062 3.3203H172.832V7.22663H176.084C176.678 7.22663 177.155 7.04512 177.51 6.67831L177.514 6.67453ZM178.032 13.4851C178.436 13.088 178.641 12.5926 178.641 11.9989C178.641 11.4052 178.444 10.9136 178.055 10.5241C177.665 10.1346 177.151 9.938 176.512 9.938H172.84V14.0788H176.538C177.132 14.0788 177.631 13.8784 178.036 13.4813L178.032 13.4851Z" fill="#FFFDCF"/>
<path d="M182.642 3.43338L183.436 0.510254H186.665V8.88637L187.626 5.63424C188.31 5.11995 189.161 4.86281 190.178 4.86281C191.536 4.86281 192.614 5.30903 193.408 6.19769C194.202 7.08635 194.603 8.3267 194.603 9.91873V13.9688H195.631L194.86 16.8919H191.63V10.1532C191.63 9.37419 191.43 8.7767 191.033 8.36451C190.636 7.95233 190.069 7.74434 189.335 7.74434C188.492 7.74434 187.838 8.00527 187.369 8.52712C186.9 9.04897 186.665 9.81663 186.665 10.8339V16.8957H183.693V3.44095H182.638L182.642 3.43338Z" fill="#FFFDCF"/>
<path d="M199.428 16.4083C198.562 15.8713 197.885 15.1339 197.394 14.1961C196.902 13.2583 196.656 12.207 196.656 11.0385C196.656 9.87004 196.902 8.8339 197.394 7.8923C197.885 6.94691 198.562 6.20573 199.428 5.66875C200.294 5.13177 201.266 4.86328 202.34 4.86328C204.026 4.86328 205.327 5.52505 206.246 6.85237V5.19228H209.219V13.9692H210.27L209.476 16.8924H206.246V12.9142L205.24 16.2835C204.412 16.9075 203.444 17.2214 202.34 17.2214C201.236 17.2214 200.294 16.9529 199.428 16.4159V16.4083ZM205.316 13.4625C205.94 12.8159 206.25 12.0066 206.25 11.0423C206.25 10.078 205.936 9.26878 205.301 8.62213C204.669 7.97549 203.879 7.65028 202.926 7.65028C201.973 7.65028 201.187 7.97549 200.563 8.62213C199.939 9.26878 199.625 10.078 199.625 11.0423C199.625 12.0066 199.935 12.8159 200.563 13.4625C201.187 14.1091 201.973 14.4344 202.926 14.4344C203.879 14.4344 204.688 14.1091 205.312 13.4625H205.316Z" fill="#FFFDCF"/>
<path d="M210.674 5.18848H213.926L216.664 12.7705L219.425 5.18848H222.699L218.23 16.8886H215.14L210.67 5.18848H210.674Z" fill="#FFFDCF"/>
<path d="M225.733 16.4083C224.867 15.8713 224.19 15.1339 223.698 14.1961C223.206 13.2583 222.961 12.207 222.961 11.0385C222.961 9.87004 223.206 8.8339 223.698 7.8923C224.19 6.94691 224.867 6.20573 225.733 5.66875C226.599 5.13177 227.57 4.86328 228.644 4.86328C230.331 4.86328 231.632 5.52505 232.551 6.85237V5.19228H235.523V13.9692H236.574L235.78 16.8924H232.551V12.9142L231.545 16.2835C230.717 16.9075 229.749 17.2214 228.644 17.2214C227.54 17.2214 226.599 16.9529 225.733 16.4159V16.4083ZM231.617 13.4625C232.241 12.8159 232.551 12.0066 232.551 11.0423C232.551 10.078 232.237 9.26878 231.602 8.62213C230.97 7.97549 230.18 7.65028 229.227 7.65028C228.274 7.65028 227.487 7.97549 226.863 8.62213C226.239 9.26878 225.925 10.078 225.925 11.0423C225.925 12.0066 226.236 12.8159 226.863 13.4625C227.487 14.1091 228.274 14.4344 229.227 14.4344C230.18 14.4344 230.989 14.1091 231.613 13.4625H231.617Z" fill="#FFFDCF"/>
<path d="M237.304 8.11553L238.098 5.1924H241.327V8.89075L242.288 5.63862C242.972 5.12433 243.823 4.86719 244.84 4.86719C246.198 4.86719 247.276 5.31341 248.07 6.20207C248.864 7.09073 249.265 8.33108 249.265 9.92311V13.9731H250.293L249.522 16.8963H246.293V10.1576C246.293 9.37857 246.092 8.78108 245.695 8.36889C245.298 7.95671 244.731 7.74872 243.997 7.74872C243.154 7.74872 242.5 8.00965 242.031 8.5315C241.562 9.05335 241.327 9.82101 241.327 10.8382V16.9H238.355V8.12309H237.3L237.304 8.11553Z" fill="#FFFDCF"/>
</svg>
