<svg width="31" height="32" viewBox="0 0 31 32" fill="none" xmlns="http://www.w3.org/2000/svg">
<path d="M16.9885 17.3854C18.0281 16.3457 18.0281 14.6601 16.9885 13.6205C15.9488 12.5808 14.2632 12.5808 13.2235 13.6205C12.1839 14.6601 12.1839 16.3457 13.2235 17.3854C14.2632 18.425 15.9488 18.425 16.9885 17.3854Z" fill="#FD4A13"/>
<path d="M30.0664 13.8669C30.8794 10.316 28.2399 9.70722 28.2399 9.70722C26.3453 10.8341 24.7457 11.9497 23.392 13.0425C21.5692 9.25721 18.9297 4.80634 15.1104 0C11.291 4.80634 8.65151 9.25343 6.8288 13.0425C5.47501 11.9497 3.87542 10.8341 1.98087 9.70722C1.98087 9.70722 -0.654868 10.316 0.154382 13.8669C0.154382 13.8669 2.62373 14.472 5.41829 16.2152C3.91323 19.906 3.26281 22.6855 2.9981 24.1451C2.77121 25.1397 2.71448 26.0321 2.70314 26.4859C2.70314 26.6069 2.69558 26.7241 2.68801 26.8452C2.5481 29.133 4.3292 30.4679 5.22165 30.8271C5.49014 30.9368 5.76997 31.0162 6.05359 31.0465C11.1246 31.5796 12.6902 29.3372 13.178 27.8926C13.507 27.2271 15.8213 21.8724 9.21495 15.1829C10.4629 11.8022 12.3309 7.82779 15.1179 3.28616C17.9049 7.83157 19.773 11.806 21.0209 15.1829C14.4108 21.8762 16.7289 27.2309 17.0579 27.8926C17.5457 29.3334 19.1112 31.5759 24.1823 31.0465C24.4697 31.0162 24.7495 30.9368 25.0142 30.8271C25.9029 30.4679 27.6878 29.133 27.5479 26.8452C27.5403 26.7241 27.5327 26.6069 27.5327 26.4859C27.5214 26.0321 27.4647 25.1397 27.2378 24.1451C26.9693 22.6855 26.3226 19.906 24.8176 16.2152C27.6122 14.472 30.0815 13.8669 30.0815 13.8669H30.0664ZM11.4082 22.4208C11.654 24.9241 10.8977 26.6788 10.4024 27.367C10.2208 27.6204 9.98261 27.8246 9.71034 27.9683C8.67797 28.5053 7.72124 28.4372 6.87418 28.0515C6.85527 27.9607 6.84393 27.87 6.82502 27.7792C6.7267 26.2288 6.79099 23.0296 8.17125 18.3064C9.38134 19.4144 10.5196 20.7682 11.4082 22.4208ZM20.5066 27.9683C20.2306 27.8246 19.9961 27.6166 19.8146 27.367C19.3192 26.6788 18.5629 24.9241 18.8087 22.4208C19.7012 20.7682 20.8394 19.4144 22.0457 18.3064C23.426 23.0296 23.4903 26.2288 23.392 27.7792C23.373 27.87 23.3617 27.9607 23.3428 28.0515C22.4957 28.4372 21.539 28.509 20.5066 27.9683Z" fill="#FD4A13"/>
</svg>
